<svg width="512" height="512" viewBox="0 0 512 512" fill="none" xmlns="http://www.w3.org/2000/svg">
  <rect width="512" height="512" rx="128" fill="#524BE0"/>
  <path d="M142 156C142 147.163 149.163 140 158 140H188.566C196.155 140 202.765 145.181 204.58 152.55L210.364 176H362C372.028 176 379.535 185.199 377.528 195.024L356.301 298.933C354.788 306.342 348.273 311.667 340.711 311.667H232.667C225.286 311.667 218.887 306.626 217.162 299.449L186.401 171.333H158C149.163 171.333 142 164.17 142 155.333V156Z" fill="white"/>
  <path d="M228 352C228 369.673 213.673 384 196 384C178.327 384 164 369.673 164 352C164 334.327 178.327 320 196 320C213.673 320 228 334.327 228 352Z" fill="white"/>
  <path d="M372 352C372 369.673 357.673 384 340 384C322.327 384 308 369.673 308 352C308 334.327 322.327 320 340 320C357.673 320 372 334.327 372 352Z" fill="white"/>
  <path d="M235 224H338" stroke="#524BE0" stroke-width="24" stroke-linecap="round"/>
  <path d="M227 264H328" stroke="#524BE0" stroke-width="24" stroke-linecap="round"/>
</svg>
